<svg id="visual" viewBox="0 0 960 540" width="960" height="540" xmlns="http://www.w3.org/2000/svg" xmlns:xlink="http://www.w3.org/1999/xlink" version="1.1"><rect x="0" y="0" width="960" height="540" fill="#FFFFFF"></rect><defs><linearGradient id="grad1_0" x1="43.8%" y1="0%" x2="100%" y2="100%"><stop offset="14.444444444444446%" stop-color="#0066ff" stop-opacity="1"></stop><stop offset="85.55555555555554%" stop-color="#0066ff" stop-opacity="1"></stop></linearGradient></defs><defs><linearGradient id="grad1_1" x1="43.8%" y1="0%" x2="100%" y2="100%"><stop offset="14.444444444444446%" stop-color="#0066ff" stop-opacity="1"></stop><stop offset="85.55555555555554%" stop-color="#8b95ff" stop-opacity="1"></stop></linearGradient></defs><defs><linearGradient id="grad1_2" x1="43.8%" y1="0%" x2="100%" y2="100%"><stop offset="14.444444444444446%" stop-color="#cac9ff" stop-opacity="1"></stop><stop offset="85.55555555555554%" stop-color="#8b95ff" stop-opacity="1"></stop></linearGradient></defs><defs><linearGradient id="grad1_3" x1="43.8%" y1="0%" x2="100%" y2="100%"><stop offset="14.444444444444446%" stop-color="#cac9ff" stop-opacity="1"></stop><stop offset="85.55555555555554%" stop-color="#ffffff" stop-opacity="1"></stop></linearGradient></defs><defs><linearGradient id="grad2_0" x1="0%" y1="0%" x2="56.3%" y2="100%"><stop offset="14.444444444444446%" stop-color="#0066ff" stop-opacity="1"></stop><stop offset="85.55555555555554%" stop-color="#0066ff" stop-opacity="1"></stop></linearGradient></defs><defs><linearGradient id="grad2_1" x1="0%" y1="0%" x2="56.3%" y2="100%"><stop offset="14.444444444444446%" stop-color="#8b95ff" stop-opacity="1"></stop><stop offset="85.55555555555554%" stop-color="#0066ff" stop-opacity="1"></stop></linearGradient></defs><defs><linearGradient id="grad2_2" x1="0%" y1="0%" x2="56.3%" y2="100%"><stop offset="14.444444444444446%" stop-color="#8b95ff" stop-opacity="1"></stop><stop offset="85.55555555555554%" stop-color="#cac9ff" stop-opacity="1"></stop></linearGradient></defs><defs><linearGradient id="grad2_3" x1="0%" y1="0%" x2="56.3%" y2="100%"><stop offset="14.444444444444446%" stop-color="#ffffff" stop-opacity="1"></stop><stop offset="85.55555555555554%" stop-color="#cac9ff" stop-opacity="1"></stop></linearGradient></defs><g transform="translate(960, 0)"><path d="M0 378C-26.2 371.6 -52.4 365.3 -83 363.6C-113.6 362 -148.6 365.2 -164 340.6C-179.4 315.9 -175.1 263.5 -192 240.8C-209 218.1 -247.1 225.3 -265 211.4C-282.9 197.4 -280.6 162.4 -282 135.8C-283.4 109.2 -288.5 90.9 -305.2 69.6C-321.8 48.4 -349.9 24.2 -378 0L0 0Z" fill="#e5e4ff"></path><path d="M0 283.5C-19.6 278.7 -39.3 273.9 -62.3 272.7C-85.2 271.5 -111.5 273.9 -123 255.4C-134.5 236.9 -131.3 197.6 -144 180.6C-156.7 163.6 -185.3 169 -198.8 158.5C-212.2 148.1 -210.5 121.8 -211.5 101.9C-212.5 81.9 -216.4 68.2 -228.9 52.2C-241.3 36.3 -262.4 18.2 -283.5 0L0 0Z" fill="#acafff"></path><path d="M0 189C-13.1 185.8 -26.2 182.6 -41.5 181.8C-56.8 181 -74.3 182.6 -82 170.3C-89.7 158 -87.5 131.7 -96 120.4C-104.5 109.1 -123.6 112.6 -132.5 105.7C-141.5 98.7 -140.3 81.2 -141 67.9C-141.7 54.6 -144.3 45.4 -152.6 34.8C-160.9 24.2 -174.9 12.1 -189 0L0 0Z" fill="#617dff"></path><path d="M0 94.5C-6.5 92.9 -13.1 91.3 -20.8 90.9C-28.4 90.5 -37.2 91.3 -41 85.1C-44.8 79 -43.8 65.9 -48 60.2C-52.2 54.5 -61.8 56.3 -66.3 52.8C-70.7 49.4 -70.2 40.6 -70.5 34C-70.8 27.3 -72.1 22.7 -76.3 17.4C-80.4 12.1 -87.5 6.1 -94.5 0L0 0Z" fill="#0066ff"></path></g><g transform="translate(0, 540)"><path d="M0 -378C29.8 -379.4 59.6 -380.8 84.1 -368.5C108.6 -356.2 127.8 -330.2 151 -313.5C174.1 -296.9 201.2 -289.5 215.1 -269.7C229 -249.9 229.6 -217.7 247.8 -197.6C266 -177.6 301.8 -169.7 310.8 -149.7C319.9 -129.7 302.3 -97.5 309.1 -70.5C315.8 -43.6 346.9 -21.8 378 0L0 0Z" fill="#e5e4ff"></path><path d="M0 -283.5C22.4 -284.6 44.7 -285.6 63.1 -276.4C81.5 -267.2 95.9 -247.7 113.2 -235.2C130.6 -222.6 150.9 -217.1 161.3 -202.3C171.7 -187.5 172.2 -163.3 185.9 -148.2C199.5 -133.2 226.3 -127.3 233.1 -112.3C239.9 -97.3 226.7 -73.1 231.8 -52.9C236.9 -32.7 260.2 -16.3 283.5 0L0 0Z" fill="#acafff"></path><path d="M0 -189C14.9 -189.7 29.8 -190.4 42.1 -184.3C54.3 -178.1 63.9 -165.1 75.5 -156.8C87.1 -148.4 100.6 -144.8 107.6 -134.9C114.5 -125 114.8 -108.9 123.9 -98.8C133 -88.8 150.9 -84.9 155.4 -74.8C160 -64.8 151.2 -48.8 154.5 -35.3C157.9 -21.8 173.5 -10.9 189 0L0 0Z" fill="#617dff"></path><path d="M0 -94.5C7.5 -94.9 14.9 -95.2 21 -92.1C27.2 -89.1 32 -82.6 37.7 -78.4C43.5 -74.2 50.3 -72.4 53.8 -67.4C57.2 -62.5 57.4 -54.4 62 -49.4C66.5 -44.4 75.4 -42.4 77.7 -37.4C80 -32.4 75.6 -24.4 77.3 -17.6C79 -10.9 86.7 -5.4 94.5 0L0 0Z" fill="#0066ff"></path></g></svg>