<svg id="visual" viewBox="0 0 960 540" width="960" height="540" xmlns="http://www.w3.org/2000/svg" xmlns:xlink="http://www.w3.org/1999/xlink" version="1.1"><rect width="960" height="540" fill="#ffffff"></rect><g><g transform="translate(156 288)"><path d="M60.2 -56C73.6 -31.3 76.8 -6.5 73.5 20.2C70.1 47 60.2 75.7 38.1 90.8C16 106 -18.3 107.5 -49.2 95.3C-80.1 83 -107.6 56.9 -110.4 29.5C-113.2 2.1 -91.3 -26.6 -68.8 -53.4C-46.3 -80.3 -23.1 -105.1 0.1 -105.3C23.4 -105.4 46.9 -80.7 60.2 -56Z" fill="#0066ff"></path></g><g transform="translate(893 49)"><path d="M39.8 -31.2C48.7 -20.6 51.1 -4.2 46.4 8.3C41.7 20.8 30 29.3 15.9 38.1C1.8 46.8 -14.7 55.8 -26 51.4C-37.3 47 -43.5 29.1 -47.2 11.2C-51 -6.7 -52.3 -24.8 -44 -35.3C-35.8 -45.8 -17.9 -48.8 -1.2 -47.8C15.5 -46.8 30.9 -41.9 39.8 -31.2Z" fill="#0066ff"></path></g><g transform="translate(864 519)"><path d="M42.2 -30.9C52.2 -21 56.3 -3.6 52.1 10.7C47.8 25 35.3 36.2 20.9 42.9C6.5 49.6 -9.7 51.8 -23.4 46.1C-37.1 40.5 -48.2 27 -51.8 11.7C-55.4 -3.6 -51.5 -20.8 -41.6 -30.7C-31.7 -40.6 -15.9 -43.2 0.1 -43.3C16.1 -43.4 32.1 -40.9 42.2 -30.9Z" fill="#0066ff"></path></g><g transform="translate(551 114)"><path d="M60.2 -46.8C74.3 -30.3 79.5 -5.5 73.4 15C67.3 35.4 49.9 51.5 32.1 56.1C14.3 60.6 -4.1 53.5 -21.7 45C-39.4 36.5 -56.3 26.6 -61.1 12.1C-66 -2.5 -58.6 -21.7 -46.4 -37.8C-34.2 -53.9 -17.1 -66.9 3 -69.2C23 -71.6 46 -63.3 60.2 -46.8Z" fill="#0066ff"></path></g><g transform="translate(403 486)"><path d="M51.9 -42C65.7 -24.1 74.4 -2.6 71 17.8C67.6 38.1 52.2 57.2 33.4 64.3C14.7 71.3 -7.4 66.3 -25.9 56.4C-44.5 46.5 -59.5 31.7 -63 14.9C-66.4 -2 -58.4 -21.1 -46 -38.7C-33.5 -56.4 -16.8 -72.7 1.1 -73.6C19 -74.5 38.1 -60 51.9 -42Z" fill="#0066ff"></path></g><g transform="translate(247 2)"><path d="M16 -12.2C20.4 -7.2 23.5 -0.6 22.8 6.3C22.1 13.3 17.8 20.5 12 22.2C6.3 23.9 -0.8 20.1 -7.7 16.5C-14.5 13 -21.3 9.7 -22.2 5.2C-23.2 0.7 -18.3 -5.1 -13.7 -10.1C-9 -15.2 -4.5 -19.6 0.6 -20.1C5.8 -20.6 11.6 -17.3 16 -12.2Z" fill="#0066ff"></path></g></g></svg>