<svg id="visual" viewBox="0 0 540 960" width="540" height="960" xmlns="http://www.w3.org/2000/svg" xmlns:xlink="http://www.w3.org/1999/xlink" version="1.1"><rect x="0" y="0" width="540" height="960" fill="#ffffff"></rect><defs><linearGradient id="grad1_0" x1="0%" y1="100%" x2="100%" y2="0%"><stop offset="30%" stop-color="#0066ff" stop-opacity="1"></stop><stop offset="70%" stop-color="#0066ff" stop-opacity="1"></stop></linearGradient></defs><defs><linearGradient id="grad1_1" x1="0%" y1="100%" x2="100%" y2="0%"><stop offset="30%" stop-color="#0066ff" stop-opacity="1"></stop><stop offset="70%" stop-color="#5a7aff" stop-opacity="1"></stop></linearGradient></defs><defs><linearGradient id="grad1_2" x1="0%" y1="100%" x2="100%" y2="0%"><stop offset="30%" stop-color="#808eff" stop-opacity="1"></stop><stop offset="70%" stop-color="#5a7aff" stop-opacity="1"></stop></linearGradient></defs><defs><linearGradient id="grad1_3" x1="0%" y1="100%" x2="100%" y2="0%"><stop offset="30%" stop-color="#808eff" stop-opacity="1"></stop><stop offset="70%" stop-color="#9ea4ff" stop-opacity="1"></stop></linearGradient></defs><defs><linearGradient id="grad1_4" x1="0%" y1="100%" x2="100%" y2="0%"><stop offset="30%" stop-color="#b9baff" stop-opacity="1"></stop><stop offset="70%" stop-color="#9ea4ff" stop-opacity="1"></stop></linearGradient></defs><defs><linearGradient id="grad1_5" x1="0%" y1="100%" x2="100%" y2="0%"><stop offset="30%" stop-color="#b9baff" stop-opacity="1"></stop><stop offset="70%" stop-color="#d2d0ff" stop-opacity="1"></stop></linearGradient></defs><defs><linearGradient id="grad1_6" x1="0%" y1="100%" x2="100%" y2="0%"><stop offset="30%" stop-color="#e9e7ff" stop-opacity="1"></stop><stop offset="70%" stop-color="#d2d0ff" stop-opacity="1"></stop></linearGradient></defs><defs><linearGradient id="grad1_7" x1="0%" y1="100%" x2="100%" y2="0%"><stop offset="30%" stop-color="#e9e7ff" stop-opacity="1"></stop><stop offset="70%" stop-color="#ffffff" stop-opacity="1"></stop></linearGradient></defs><defs><linearGradient id="grad2_0" x1="0%" y1="100%" x2="100%" y2="0%"><stop offset="30%" stop-color="#0066ff" stop-opacity="1"></stop><stop offset="70%" stop-color="#0066ff" stop-opacity="1"></stop></linearGradient></defs><defs><linearGradient id="grad2_1" x1="0%" y1="100%" x2="100%" y2="0%"><stop offset="30%" stop-color="#5a7aff" stop-opacity="1"></stop><stop offset="70%" stop-color="#0066ff" stop-opacity="1"></stop></linearGradient></defs><defs><linearGradient id="grad2_2" x1="0%" y1="100%" x2="100%" y2="0%"><stop offset="30%" stop-color="#5a7aff" stop-opacity="1"></stop><stop offset="70%" stop-color="#808eff" stop-opacity="1"></stop></linearGradient></defs><defs><linearGradient id="grad2_3" x1="0%" y1="100%" x2="100%" y2="0%"><stop offset="30%" stop-color="#9ea4ff" stop-opacity="1"></stop><stop offset="70%" stop-color="#808eff" stop-opacity="1"></stop></linearGradient></defs><defs><linearGradient id="grad2_4" x1="0%" y1="100%" x2="100%" y2="0%"><stop offset="30%" stop-color="#9ea4ff" stop-opacity="1"></stop><stop offset="70%" stop-color="#b9baff" stop-opacity="1"></stop></linearGradient></defs><defs><linearGradient id="grad2_5" x1="0%" y1="100%" x2="100%" y2="0%"><stop offset="30%" stop-color="#d2d0ff" stop-opacity="1"></stop><stop offset="70%" stop-color="#b9baff" stop-opacity="1"></stop></linearGradient></defs><defs><linearGradient id="grad2_6" x1="0%" y1="100%" x2="100%" y2="0%"><stop offset="30%" stop-color="#d2d0ff" stop-opacity="1"></stop><stop offset="70%" stop-color="#e9e7ff" stop-opacity="1"></stop></linearGradient></defs><defs><linearGradient id="grad2_7" x1="0%" y1="100%" x2="100%" y2="0%"><stop offset="30%" stop-color="#ffffff" stop-opacity="1"></stop><stop offset="70%" stop-color="#e9e7ff" stop-opacity="1"></stop></linearGradient></defs><g transform="translate(540, 960)"><path d="M-540 0C-508.2 -46.8 -476.4 -93.6 -466 -151.4C-455.6 -209.3 -466.6 -278.2 -436.9 -317.4C-407.1 -356.6 -336.7 -366.1 -286.3 -394C-235.8 -421.9 -205.4 -468.1 -161 -495.5C-116.6 -522.9 -58.3 -531.4 0 -540L0 0Z" fill="#f4f3ff"></path><path d="M-472.5 0C-444.7 -40.9 -416.9 -81.9 -407.8 -132.5C-398.7 -183.1 -408.3 -243.4 -382.3 -277.7C-356.2 -312 -294.6 -320.4 -250.5 -344.7C-206.3 -369.1 -179.7 -409.6 -140.9 -433.6C-102 -457.5 -51 -465 0 -472.5L0 0Z" fill="#dddcff"></path><path d="M-405 0C-381.2 -35.1 -357.3 -70.2 -349.5 -113.6C-341.7 -157 -349.9 -208.6 -327.7 -238.1C-305.4 -267.5 -252.5 -274.6 -214.7 -295.5C-176.9 -316.4 -154 -351.1 -120.7 -371.6C-87.5 -392.2 -43.7 -398.6 0 -405L0 0Z" fill="#c5c5ff"></path><path d="M-337.5 0C-317.6 -29.2 -297.8 -58.5 -291.3 -94.6C-284.8 -130.8 -291.6 -173.9 -273 -198.4C-254.5 -222.9 -210.4 -228.8 -178.9 -246.2C-147.4 -263.7 -128.4 -292.6 -100.6 -309.7C-72.9 -326.8 -36.4 -332.2 0 -337.5L0 0Z" fill="#acafff"></path><path d="M-270 0C-254.1 -23.4 -238.2 -46.8 -233 -75.7C-227.8 -104.6 -233.3 -139.1 -218.4 -158.7C-203.6 -178.3 -168.3 -183.1 -143.1 -197C-117.9 -210.9 -102.7 -234.1 -80.5 -247.8C-58.3 -261.4 -29.2 -265.7 0 -270L0 0Z" fill="#9099ff"></path><path d="M-202.5 0C-190.6 -17.5 -178.7 -35.1 -174.8 -56.8C-170.9 -78.5 -175 -104.3 -163.8 -119C-152.7 -133.7 -126.3 -137.3 -107.3 -147.7C-88.4 -158.2 -77 -175.5 -60.4 -185.8C-43.7 -196.1 -21.9 -199.3 0 -202.5L0 0Z" fill="#6e84ff"></path><path d="M-135 0C-127.1 -11.7 -119.1 -23.4 -116.5 -37.9C-113.9 -52.3 -116.6 -69.5 -109.2 -79.4C-101.8 -89.2 -84.2 -91.5 -71.6 -98.5C-59 -105.5 -51.3 -117 -40.2 -123.9C-29.2 -130.7 -14.6 -132.9 0 -135L0 0Z" fill="#3f70ff"></path><path d="M-67.5 0C-63.5 -5.8 -59.6 -11.7 -58.3 -18.9C-57 -26.2 -58.3 -34.8 -54.6 -39.7C-50.9 -44.6 -42.1 -45.8 -35.8 -49.2C-29.5 -52.7 -25.7 -58.5 -20.1 -61.9C-14.6 -65.4 -7.3 -66.4 0 -67.5L0 0Z" fill="#0066ff"></path></g><g transform="translate(0, 0)"><path d="M540 0C522.3 53.5 504.7 107.1 486.9 158.2C469.2 209.4 451.4 258.1 425.5 309.2C399.7 360.3 365.7 413.7 317.4 436.9C269.1 460 206.4 452.9 151.1 465.1C95.8 477.2 47.9 508.6 0 540L0 0Z" fill="#f4f3ff"></path><path d="M472.5 0C457 46.8 441.6 93.7 426.1 138.4C410.6 183.2 395 225.8 372.4 270.5C349.7 315.2 320 362 277.7 382.3C235.5 402.5 180.6 396.3 132.2 406.9C83.8 417.6 41.9 445 0 472.5L0 0Z" fill="#dddcff"></path><path d="M405 0C391.8 40.2 378.5 80.3 365.2 118.7C351.9 157 338.6 193.6 319.2 231.9C299.8 270.2 274.3 310.3 238.1 327.7C201.8 345 154.8 339.7 113.3 348.8C71.9 357.9 35.9 381.5 0 405L0 0Z" fill="#c5c5ff"></path><path d="M337.5 0C326.5 33.5 315.4 66.9 304.3 98.9C293.3 130.8 282.1 161.3 266 193.2C249.8 225.2 228.6 258.6 198.4 273C168.2 287.5 129 283.1 94.4 290.7C59.9 298.3 29.9 317.9 0 337.5L0 0Z" fill="#acafff"></path><path d="M270 0C261.2 26.8 252.3 53.5 243.5 79.1C234.6 104.7 225.7 129 212.8 154.6C199.8 180.1 182.9 206.9 158.7 218.4C134.5 230 103.2 226.5 75.6 232.5C47.9 238.6 24 254.3 0 270L0 0Z" fill="#9099ff"></path><path d="M202.5 0C195.9 20.1 189.3 40.2 182.6 59.3C176 78.5 169.3 96.8 159.6 115.9C149.9 135.1 137.1 155.1 119 163.8C100.9 172.5 77.4 169.8 56.7 174.4C35.9 179 18 190.7 0 202.5L0 0Z" fill="#6e84ff"></path><path d="M135 0C130.6 13.4 126.2 26.8 121.7 39.6C117.3 52.3 112.9 64.5 106.4 77.3C99.9 90.1 91.4 103.4 79.4 109.2C67.3 115 51.6 113.2 37.8 116.3C24 119.3 12 127.2 0 135L0 0Z" fill="#3f70ff"></path><path d="M67.5 0C65.3 6.7 63.1 13.4 60.9 19.8C58.7 26.2 56.4 32.3 53.2 38.6C50 45 45.7 51.7 39.7 54.6C33.6 57.5 25.8 56.6 18.9 58.1C12 59.7 6 63.6 0 67.5L0 0Z" fill="#0066ff"></path></g></svg>