<svg id="visual" viewBox="0 0 960 540" width="960" height="540" xmlns="http://www.w3.org/2000/svg" xmlns:xlink="http://www.w3.org/1999/xlink" version="1.1"><rect x="0" y="0" width="960" height="540" fill="#fff"></rect><path d="M0 140L22.8 137.5C45.7 135 91.3 130 137 144.5C182.7 159 228.3 193 274 203.7C319.7 214.3 365.3 201.7 411.2 196C457 190.3 503 191.7 548.8 185.7C594.7 179.7 640.3 166.3 686 151.8C731.7 137.3 777.3 121.7 823 111C868.7 100.3 914.3 94.7 937.2 91.8L960 89L960 541L937.2 541C914.3 541 868.7 541 823 541C777.3 541 731.7 541 686 541C640.3 541 594.7 541 548.8 541C503 541 457 541 411.2 541C365.3 541 319.7 541 274 541C228.3 541 182.7 541 137 541C91.3 541 45.7 541 22.8 541L0 541Z" fill="#4facf7"></path><path d="M0 132L22.8 143C45.7 154 91.3 176 137 201.7C182.7 227.3 228.3 256.7 274 269C319.7 281.3 365.3 276.7 411.2 268.3C457 260 503 248 548.8 229C594.7 210 640.3 184 686 165.5C731.7 147 777.3 136 823 154.5C868.7 173 914.3 221 937.2 245L960 269L960 541L937.2 541C914.3 541 868.7 541 823 541C777.3 541 731.7 541 686 541C640.3 541 594.7 541 548.8 541C503 541 457 541 411.2 541C365.3 541 319.7 541 274 541C228.3 541 182.7 541 137 541C91.3 541 45.7 541 22.8 541L0 541Z" fill="#42a7f9"></path><path d="M0 288L22.8 284.2C45.7 280.3 91.3 272.7 137 258.3C182.7 244 228.3 223 274 212.7C319.7 202.3 365.3 202.7 411.2 196.2C457 189.7 503 176.3 548.8 172C594.7 167.7 640.3 172.3 686 183.2C731.7 194 777.3 211 823 218.3C868.7 225.7 914.3 223.3 937.2 222.2L960 221L960 541L937.2 541C914.3 541 868.7 541 823 541C777.3 541 731.7 541 686 541C640.3 541 594.7 541 548.8 541C503 541 457 541 411.2 541C365.3 541 319.7 541 274 541C228.3 541 182.7 541 137 541C91.3 541 45.7 541 22.8 541L0 541Z" fill="#35a1fb"></path><path d="M0 222L22.8 231.2C45.7 240.3 91.3 258.7 137 254.3C182.7 250 228.3 223 274 212.3C319.7 201.7 365.3 207.3 411.2 216.5C457 225.7 503 238.3 548.8 241C594.7 243.7 640.3 236.3 686 231.8C731.7 227.3 777.3 225.7 823 238.2C868.7 250.7 914.3 277.3 937.2 290.7L960 304L960 541L937.2 541C914.3 541 868.7 541 823 541C777.3 541 731.7 541 686 541C640.3 541 594.7 541 548.8 541C503 541 457 541 411.2 541C365.3 541 319.7 541 274 541C228.3 541 182.7 541 137 541C91.3 541 45.7 541 22.8 541L0 541Z" fill="#289bfc"></path><path d="M0 352L22.8 345C45.7 338 91.3 324 137 316C182.7 308 228.3 306 274 302.3C319.7 298.7 365.3 293.3 411.2 294C457 294.7 503 301.3 548.8 303.2C594.7 305 640.3 302 686 301.8C731.7 301.7 777.3 304.3 823 308.8C868.7 313.3 914.3 319.7 937.2 322.8L960 326L960 541L937.2 541C914.3 541 868.7 541 823 541C777.3 541 731.7 541 686 541C640.3 541 594.7 541 548.8 541C503 541 457 541 411.2 541C365.3 541 319.7 541 274 541C228.3 541 182.7 541 137 541C91.3 541 45.7 541 22.8 541L0 541Z" fill="#1995fe"></path><path d="M0 277L22.8 277.3C45.7 277.7 91.3 278.3 137 284C182.7 289.7 228.3 300.3 274 313.5C319.7 326.7 365.3 342.3 411.2 349.5C457 356.7 503 355.3 548.8 352.2C594.7 349 640.3 344 686 344.8C731.7 345.7 777.3 352.3 823 340.3C868.7 328.3 914.3 297.7 937.2 282.3L960 267L960 541L937.2 541C914.3 541 868.7 541 823 541C777.3 541 731.7 541 686 541C640.3 541 594.7 541 548.8 541C503 541 457 541 411.2 541C365.3 541 319.7 541 274 541C228.3 541 182.7 541 137 541C91.3 541 45.7 541 22.8 541L0 541Z" fill="#088fff"></path><path d="M0 364L22.8 367.8C45.7 371.7 91.3 379.3 137 381.8C182.7 384.3 228.3 381.7 274 383.3C319.7 385 365.3 391 411.2 389.2C457 387.3 503 377.7 548.8 363.2C594.7 348.7 640.3 329.3 686 330.7C731.7 332 777.3 354 823 364.3C868.7 374.7 914.3 373.3 937.2 372.7L960 372L960 541L937.2 541C914.3 541 868.7 541 823 541C777.3 541 731.7 541 686 541C640.3 541 594.7 541 548.8 541C503 541 457 541 411.2 541C365.3 541 319.7 541 274 541C228.3 541 182.7 541 137 541C91.3 541 45.7 541 22.8 541L0 541Z" fill="#0089ff"></path><path d="M0 391L22.8 396.8C45.7 402.7 91.3 414.3 137 418.2C182.7 422 228.3 418 274 412.5C319.7 407 365.3 400 411.2 401.2C457 402.3 503 411.7 548.8 413.7C594.7 415.7 640.3 410.3 686 405.8C731.7 401.3 777.3 397.7 823 386.2C868.7 374.7 914.3 355.3 937.2 345.7L960 336L960 541L937.2 541C914.3 541 868.7 541 823 541C777.3 541 731.7 541 686 541C640.3 541 594.7 541 548.8 541C503 541 457 541 411.2 541C365.3 541 319.7 541 274 541C228.3 541 182.7 541 137 541C91.3 541 45.7 541 22.8 541L0 541Z" fill="#0082ff"></path><path d="M0 436L22.8 426.2C45.7 416.3 91.3 396.7 137 398.3C182.7 400 228.3 423 274 430.8C319.7 438.7 365.3 431.3 411.2 431C457 430.7 503 437.3 548.8 434.7C594.7 432 640.3 420 686 414.7C731.7 409.3 777.3 410.7 823 416.5C868.7 422.3 914.3 432.7 937.2 437.8L960 443L960 541L937.2 541C914.3 541 868.7 541 823 541C777.3 541 731.7 541 686 541C640.3 541 594.7 541 548.8 541C503 541 457 541 411.2 541C365.3 541 319.7 541 274 541C228.3 541 182.7 541 137 541C91.3 541 45.7 541 22.8 541L0 541Z" fill="#007cff"></path><path d="M0 414L22.8 419.7C45.7 425.3 91.3 436.7 137 439.5C182.7 442.3 228.3 436.7 274 433.3C319.7 430 365.3 429 411.2 434.8C457 440.7 503 453.3 548.8 458.2C594.7 463 640.3 460 686 460C731.7 460 777.3 463 823 459C868.7 455 914.3 444 937.2 438.5L960 433L960 541L937.2 541C914.3 541 868.7 541 823 541C777.3 541 731.7 541 686 541C640.3 541 594.7 541 548.8 541C503 541 457 541 411.2 541C365.3 541 319.7 541 274 541C228.3 541 182.7 541 137 541C91.3 541 45.7 541 22.8 541L0 541Z" fill="#0075ff"></path><path d="M0 474L22.8 468.7C45.7 463.3 91.3 452.7 137 447.8C182.7 443 228.3 444 274 449.8C319.7 455.7 365.3 466.3 411.2 467.3C457 468.3 503 459.7 548.8 453.8C594.7 448 640.3 445 686 447.7C731.7 450.3 777.3 458.7 823 462.8C868.7 467 914.3 467 937.2 467L960 467L960 541L937.2 541C914.3 541 868.7 541 823 541C777.3 541 731.7 541 686 541C640.3 541 594.7 541 548.8 541C503 541 457 541 411.2 541C365.3 541 319.7 541 274 541C228.3 541 182.7 541 137 541C91.3 541 45.7 541 22.8 541L0 541Z" fill="#006eff"></path><path d="M0 495L22.8 492.5C45.7 490 91.3 485 137 488.7C182.7 492.3 228.3 504.7 274 506.8C319.7 509 365.3 501 411.2 498.8C457 496.7 503 500.3 548.8 504C594.7 507.7 640.3 511.3 686 510.3C731.7 509.3 777.3 503.7 823 497.5C868.7 491.3 914.3 484.7 937.2 481.3L960 478L960 541L937.2 541C914.3 541 868.7 541 823 541C777.3 541 731.7 541 686 541C640.3 541 594.7 541 548.8 541C503 541 457 541 411.2 541C365.3 541 319.7 541 274 541C228.3 541 182.7 541 137 541C91.3 541 45.7 541 22.8 541L0 541Z" fill="#0066ff"></path></svg>