<svg id="visual" viewBox="0 0 960 540" width="960" height="540" xmlns="http://www.w3.org/2000/svg" xmlns:xlink="http://www.w3.org/1999/xlink" version="1.1"><path d="M719 540L722.2 530C725.3 520 731.7 500 734.8 480C738 460 738 440 734.8 420C731.7 400 725.3 380 730.2 360C735 340 751 320 755.8 300C760.7 280 754.3 260 760.7 240C767 220 786 200 786 180C786 160 767 140 760.7 120C754.3 100 760.7 80 755.8 60C751 40 735 20 727 10L719 0L960 0L960 10C960 20 960 40 960 60C960 80 960 100 960 120C960 140 960 160 960 180C960 200 960 220 960 240C960 260 960 280 960 300C960 320 960 340 960 360C960 380 960 400 960 420C960 440 960 460 960 480C960 500 960 520 960 530L960 540Z" fill="#004cbb"></path><path d="M633 540L633 530C633 520 633 500 634.5 480C636 460 639 440 642.2 420C645.3 400 648.7 380 658.3 360C668 340 684 320 685.5 300C687 280 674 260 675.5 240C677 220 693 200 693 180C693 160 677 140 675.5 120C674 100 687 80 680.7 60C674.3 40 648.7 20 635.8 10L623 0L720 0L728 10C736 20 752 40 756.8 60C761.7 80 755.3 100 761.7 120C768 140 787 160 787 180C787 200 768 220 761.7 240C755.3 260 761.7 280 756.8 300C752 320 736 340 731.2 360C726.3 380 732.7 400 735.8 420C739 440 739 460 735.8 480C732.7 500 726.3 520 723.2 530L720 540Z" fill="#0053ce"></path><path d="M450 540L446.8 530C443.7 520 437.3 500 435.8 480C434.3 460 437.7 440 439.3 420C441 400 441 380 449 360C457 340 473 320 471.3 300C469.7 280 450.3 260 445.5 240C440.7 220 450.3 200 447.2 180C444 160 428 140 420 120C412 100 412 80 410.3 60C408.7 40 405.3 20 403.7 10L402 0L624 0L636.8 10C649.7 20 675.3 40 681.7 60C688 80 675 100 676.5 120C678 140 694 160 694 180C694 200 678 220 676.5 240C675 260 688 280 686.5 300C685 320 669 340 659.3 360C649.7 380 646.3 400 643.2 420C640 440 637 460 635.5 480C634 500 634 520 634 530L634 540Z" fill="#005be1"></path><path d="M373 540L373 530C373 520 373 500 374.7 480C376.3 460 379.7 440 378.2 420C376.7 400 370.3 380 375.2 360C380 340 396 320 397.5 300C399 280 386 260 382.8 240C379.7 220 386.3 200 380 180C373.7 160 354.3 140 346.3 120C338.3 100 341.7 80 343.3 60C345 40 345 20 345 10L345 0L403 0L404.7 10C406.3 20 409.7 40 411.3 60C413 80 413 100 421 120C429 140 445 160 448.2 180C451.3 200 441.7 220 446.5 240C451.3 260 470.7 280 472.3 300C474 320 458 340 450 360C442 380 442 400 440.3 420C438.7 440 435.3 460 436.8 480C438.3 500 444.7 520 447.8 530L451 540Z" fill="#0062f5"></path><path d="M277 540L275.5 530C274 520 271 500 271 480C271 460 274 440 270.8 420C267.7 400 258.3 380 260 360C261.7 340 274.3 320 275.8 300C277.3 280 267.7 260 269.3 240C271 220 284 200 277.7 180C271.3 160 245.7 140 239.2 120C232.7 100 245.3 80 246.8 60C248.3 40 238.7 20 233.8 10L229 0L346 0L346 10C346 20 346 40 344.3 60C342.7 80 339.3 100 347.3 120C355.3 140 374.7 160 381 180C387.3 200 380.7 220 383.8 240C387 260 400 280 398.5 300C397 320 381 340 376.2 360C371.3 380 377.7 400 379.2 420C380.7 440 377.3 460 375.7 480C374 500 374 520 374 530L374 540Z" fill="#196eff"></path><path d="M124 540L125.5 530C127 520 130 500 133.2 480C136.3 460 139.7 440 138.2 420C136.7 400 130.3 380 128.7 360C127 340 130 320 131.5 300C133 280 133 260 134.7 240C136.3 220 139.7 200 135 180C130.3 160 117.7 140 117.7 120C117.7 100 130.3 80 133.5 60C136.7 40 130.3 20 127.2 10L124 0L230 0L234.8 10C239.7 20 249.3 40 247.8 60C246.3 80 233.7 100 240.2 120C246.7 140 272.3 160 278.7 180C285 200 272 220 270.3 240C268.7 260 278.3 280 276.8 300C275.3 320 262.7 340 261 360C259.3 380 268.7 400 271.8 420C275 440 272 460 272 480C272 500 275 520 276.5 530L278 540Z" fill="#367cff"></path><path d="M76 540L74.3 530C72.7 520 69.3 500 70.8 480C72.3 460 78.7 440 80.3 420C82 400 79 380 77.5 360C76 340 76 320 74.3 300C72.7 280 69.3 260 69.3 240C69.3 220 72.7 200 71.2 180C69.7 160 63.3 140 63.3 120C63.3 100 69.7 80 71.2 60C72.7 40 69.3 20 67.7 10L66 0L125 0L128.2 10C131.3 20 137.7 40 134.5 60C131.3 80 118.7 100 118.7 120C118.7 140 131.3 160 136 180C140.7 200 137.3 220 135.7 240C134 260 134 280 132.5 300C131 320 128 340 129.7 360C131.3 380 137.7 400 139.2 420C140.7 440 137.3 460 134.2 480C131 500 128 520 126.5 530L125 540Z" fill="#4c8aff"></path><path d="M0 540L0 530C0 520 0 500 0 480C0 460 0 440 0 420C0 400 0 380 0 360C0 340 0 320 0 300C0 280 0 260 0 240C0 220 0 200 0 180C0 160 0 140 0 120C0 100 0 80 0 60C0 40 0 20 0 10L0 0L67 0L68.7 10C70.3 20 73.7 40 72.2 60C70.7 80 64.3 100 64.3 120C64.3 140 70.7 160 72.2 180C73.7 200 70.3 220 70.3 240C70.3 260 73.7 280 75.3 300C77 320 77 340 78.5 360C80 380 83 400 81.3 420C79.7 440 73.3 460 71.8 480C70.3 500 73.7 520 75.3 530L77 540Z" fill="#6198ff"></path></svg>